<?xml version="1.0" encoding="UTF-8"?><svg id="a" xmlns="http://www.w3.org/2000/svg" viewBox="0 0 389.02 429.64"><path d="M141.39,0h-35.3v44.36H.18v35.3h105.9v34.39l-106.09.44.15,35.3,105.94-.44v44.8h35.3c53.61,0,97.08-43.46,97.08-97.08S195,0,141.39,0Z" fill="blue"/><polygon points="327.48 71.79 327.48 44.36 283.11 44.36 283.11 71.79 283.11 116.15 283.11 143.58 327.48 143.58 327.48 116.15 389.02 116.15 389.02 71.79 327.48 71.79" fill="blue"/><rect y="244.12" width="386.34" height="56.77" fill="#3f3f3f"/><rect y="308.59" width="386.34" height="56.77" fill="#3f3f3f"/><rect y="372.87" width="386.34" height="56.77" fill="#3f3f3f"/><path d="M27.23,255.2v6.17h-12.56v8.39h11.45v6.17h-11.45v10.02h12.92v6.17H8.39v-36.93h18.83Z" fill="#fff"/><path d="M49.65,266.07l4.64-10.87h7.02l-8.18,17.67,8.92,19.26h-7.07l-5.33-12.19-5.38,12.19h-7.07l8.92-19.26-8.12-17.67h7.02l4.64,10.87Z" fill="#fff"/><path d="M71.38,255.2h10.87c1.23,0,2.39.23,3.48.69,1.09.46,2.04,1.09,2.85,1.9.81.81,1.44,1.76,1.9,2.85.46,1.09.69,2.25.69,3.48v7.07c0,1.27-.23,2.44-.69,3.53-.46,1.09-1.09,2.04-1.9,2.85-.81.81-1.76,1.44-2.85,1.9-1.09.46-2.25.69-3.48.69h-4.48v11.98h-6.38v-36.93ZM84.68,263.85c0-.7-.26-1.29-.76-1.77-.51-.47-1.13-.71-1.87-.71h-4.27v12.66h4.27c.74,0,1.36-.24,1.87-.71.51-.47.76-1.05.76-1.71v-7.76Z" fill="#fff"/><path d="M122.19,255.2v6.17h-12.56v8.39h11.45v6.17h-11.45v10.02h12.92v6.17h-19.2v-36.93h18.83Z" fill="#fff"/><path d="M143.34,279.57h-3.17v12.56h-6.33v-36.93h10.92c1.23,0,2.39.23,3.48.69,1.09.46,2.04,1.09,2.85,1.9.81.81,1.44,1.76,1.9,2.85.46,1.09.69,2.25.69,3.48v6.59c0,1.55-.38,2.99-1.13,4.33-.76,1.34-1.75,2.41-2.98,3.22l5.8,13.87h-6.96l-5.06-12.56ZM147.25,263.85c0-.7-.26-1.29-.76-1.77-.51-.47-1.12-.71-1.82-.71h-4.48v12.03h4.48c.7,0,1.31-.24,1.82-.71.51-.47.76-1.06.76-1.77v-7.07Z" fill="#fff"/><path d="M165.87,255.2h20.73v5.91h-7.12v25.11h7.12v5.91h-20.73v-5.91h7.17v-25.11h-7.17v-5.91Z" fill="#fff"/><path d="M217.15,255.2v6.17h-12.56v8.39h11.45v6.17h-11.45v10.02h12.92v6.17h-19.2v-36.93h18.83Z" fill="#fff"/><path d="M250.07,255.2v36.93h-6.59l-6.49-17.67-1.85-6.28h-.21l.37,6.49v17.46h-6.22v-36.93h6.59l6.44,17.46,1.95,6.44h.21l-.42-6.49v-17.41h6.22Z" fill="#fff"/><path d="M260.3,255.2h21.79v6.17h-7.7v30.76h-6.44v-30.76h-7.65v-6.17Z" fill="#fff"/><path d="M292.48,255.2h20.73v5.91h-7.12v25.11h7.12v5.91h-20.73v-5.91h7.17v-25.11h-7.17v-5.91Z" fill="#fff"/><path d="M339.54,255.2l5.49,20.79v16.14h-6.22v-10.97h-8.55v10.97h-6.22v-16.14l5.49-20.79h10.02ZM335.06,261.37h-1.06l-3.17,13.61h7.39l-3.17-13.61Z" fill="#fff"/><path d="M362.23,255.2v30.76h14.19v6.17h-20.52v-36.93h6.33Z" fill="#fff"/><path d="M28.18,345.15c0,1.44-.27,2.79-.82,4.04-.55,1.25-1.28,2.33-2.19,3.25s-2,1.64-3.27,2.19c-1.27.55-2.6.82-4.01.82H7.76v-36.93h10.13c1.41,0,2.74.27,4.01.82,1.27.55,2.36,1.27,3.27,2.19s1.64,2,2.19,3.27c.54,1.27.82,2.6.82,4.01v16.35ZM21.64,328.58c0-1.09-.37-2.01-1.11-2.77-.74-.76-1.67-1.13-2.8-1.13h-3.64v24.58h3.64c1.13,0,2.06-.37,2.8-1.11.74-.74,1.11-1.65,1.11-2.74v-16.83Z" fill="#fff"/><path d="M58.88,318.51v6.17h-12.56v8.39h11.45v6.17h-11.45v10.02h12.92v6.17h-19.2v-36.93h18.83Z" fill="#fff"/><path d="M85.26,328.9c0-1.34-.37-2.46-1.11-3.38-.74-.91-1.67-1.37-2.8-1.37s-2.01.35-2.77,1.05c-.76.7-1.13,1.57-1.13,2.58s.36,1.88,1.08,2.59c.72.7,1.62,1.38,2.69,2.03,1.07.65,2.24,1.33,3.51,2.03,1.27.7,2.44,1.55,3.51,2.53,1.07.99,1.97,2.17,2.69,3.56.72,1.39,1.08,3.09,1.08,5.09,0,1.41-.26,2.74-.79,3.98-.53,1.25-1.26,2.35-2.19,3.3-.93.95-2.02,1.7-3.27,2.24-1.25.55-2.59.82-4.04.82h-.84c-1.44,0-2.79-.27-4.04-.82-1.25-.54-2.34-1.29-3.27-2.24-.93-.95-1.67-2.05-2.22-3.3-.55-1.25-.82-2.58-.82-3.98v-1.69h6.33v1.69c0,1.13.4,2.1,1.21,2.93.81.83,1.78,1.24,2.9,1.24h.58c1.13,0,2.08-.39,2.88-1.16.79-.77,1.19-1.65,1.19-2.64,0-1.27-.36-2.31-1.08-3.14-.72-.83-1.62-1.57-2.69-2.24-1.07-.67-2.24-1.33-3.51-1.98-1.27-.65-2.44-1.42-3.51-2.29-1.07-.88-1.97-1.96-2.69-3.25-.72-1.28-1.08-2.89-1.08-4.83,0-1.48.27-2.84.82-4.09.54-1.25,1.27-2.33,2.19-3.25.91-.91,2-1.63,3.24-2.16,1.25-.53,2.59-.79,4.04-.79s2.73.26,3.98.79c1.25.53,2.34,1.27,3.27,2.22.93.95,1.66,2.09,2.19,3.43.53,1.34.79,2.83.79,4.48h-6.33Z" fill="#fff"/><path d="M102.56,318.51h20.73v5.91h-7.12v25.11h7.12v5.91h-20.73v-5.91h7.17v-25.11h-7.17v-5.91Z" fill="#fff"/><path d="M155.32,345.62c0,1.41-.26,2.74-.79,3.98-.53,1.25-1.25,2.35-2.16,3.3-.92.95-2,1.7-3.24,2.24-1.25.55-2.59.82-4.04.82h-.84c-1.44,0-2.79-.27-4.04-.82-1.25-.54-2.34-1.29-3.27-2.24-.93-.95-1.67-2.06-2.22-3.32-.55-1.27-.82-2.6-.82-4.01v-17.25c0-1.41.27-2.73.82-3.98.55-1.25,1.28-2.35,2.22-3.3.93-.95,2.02-1.7,3.27-2.24,1.25-.54,2.59-.82,4.04-.82h.84c1.44,0,2.79.26,4.04.79,1.25.53,2.33,1.28,3.24,2.24.91.97,1.64,2.12,2.16,3.46.53,1.34.79,2.81.79,4.43h-6.33c0-1.44-.4-2.58-1.21-3.43-.81-.84-1.78-1.27-2.9-1.27h-.53c-1.13,0-2.09.37-2.9,1.11-.81.74-1.21,1.65-1.21,2.74v17.83c0,1.09.4,2.01,1.21,2.77.81.76,1.78,1.13,2.9,1.13h.53c1.13,0,2.09-.37,2.9-1.11.81-.74,1.21-1.65,1.21-2.74v-4.33h-4.38v-6.12h10.71v10.13Z" fill="#fff"/><path d="M186.76,318.51v36.93h-6.59l-6.49-17.67-1.85-6.28h-.21l.37,6.49v17.46h-6.22v-36.93h6.59l6.44,17.46,1.95,6.44h.21l-.42-6.49v-17.41h6.22Z" fill="#fff"/><path d="M7.08,381.82h21.79v6.17h-7.7v30.76h-6.44v-30.76h-7.65v-6.17Z" fill="#fff"/><path d="M58.88,381.82v6.17h-12.56v8.39h11.45v6.17h-11.45v10.02h12.92v6.17h-19.2v-36.93h18.83Z" fill="#fff"/><path d="M86.31,381.82l5.49,20.79v16.14h-6.22v-10.97h-8.55v10.97h-6.22v-16.14l5.49-20.79h10.02ZM81.83,387.99h-1.06l-3.17,13.61h7.39l-3.17-13.61Z" fill="#fff"/><path d="M125.3,381.82v36.93h-6.23v-21.95l.37-4.75h-.21l-3.8,9.23h-5.01l-3.75-9.23h-.21l.37,4.75v21.95h-6.23v-36.93h7.07l5.17,12.45h.21l5.17-12.45h7.07Z" fill="#fff"/></svg>